<mxfile host="app.diagrams.net" modified="2021-09-28T11:11:25.929Z" agent="5.0 (X11; Linux x86_64) AppleWebKit/537.36 (KHTML, like Gecko) Chrome/94.0.4606.61 Safari/537.36" etag="1xYt2ASDyo1TvDkJHvN6" version="15.3.5" type="github">
  <diagram id="a9izbRfq0SU552fFDoHC" name="Page-1">
    <mxGraphModel dx="796" dy="493" grid="1" gridSize="10" guides="1" tooltips="1" connect="1" arrows="1" fold="1" page="1" pageScale="1" pageWidth="850" pageHeight="1100" math="0" shadow="0">
      <root>
        <mxCell id="0" />
        <mxCell id="1" parent="0" />
        <mxCell id="eP0lufbsr8X0sNE1XfRG-1" value="page: cio/manual/index.vue" style="text;html=1;strokeColor=none;fillColor=none;align=center;verticalAlign=middle;whiteSpace=wrap;rounded=0;hachureGap=4;pointerEvents=0;" vertex="1" parent="1">
          <mxGeometry x="290" y="80" width="220" height="20" as="geometry" />
        </mxCell>
        <mxCell id="eP0lufbsr8X0sNE1XfRG-2" value="iterate over computer property &quot;coupons&quot;&lt;br&gt;" style="text;html=1;strokeColor=none;fillColor=none;align=center;verticalAlign=middle;whiteSpace=wrap;rounded=0;hachureGap=4;pointerEvents=0;" vertex="1" parent="1">
          <mxGeometry x="360" y="140" width="260" height="20" as="geometry" />
        </mxCell>
        <mxCell id="eP0lufbsr8X0sNE1XfRG-4" value="computed property &quot;coupons&quot; access &quot;coupons&quot; values from store state &quot;data&quot; in &quot;coupons&quot; store&lt;br&gt;&lt;br&gt;file location: store/coupons/index.js" style="text;html=1;strokeColor=none;fillColor=none;align=center;verticalAlign=middle;whiteSpace=wrap;rounded=0;hachureGap=4;pointerEvents=0;" vertex="1" parent="1">
          <mxGeometry x="290" y="210" width="260" height="60" as="geometry" />
        </mxCell>
        <mxCell id="eP0lufbsr8X0sNE1XfRG-5" value="action &quot;index&quot; of &quot;coupons&quot; make GET request at the endpoint &quot;&lt;span style=&quot;color: rgb(80 , 80 , 80) ; font-family: &amp;#34;opensans&amp;#34; , &amp;#34;helvetica&amp;#34; , &amp;#34;arial&amp;#34; , sans-serif ; background-color: rgb(255 , 255 , 255)&quot;&gt;http://192.168.23.28:8000/v1/saxo/coupons/&quot;&lt;br&gt;&lt;br&gt;&lt;/span&gt;&lt;div&gt;{&lt;/div&gt;&lt;div&gt;&lt;br&gt;&lt;/div&gt;&lt;div&gt;Authorization: &quot;Bearer &quot; + cookies.get(&quot;x-access-token&quot;)&amp;nbsp; &amp;nbsp; &amp;nbsp; },&lt;/div&gt;&lt;div&gt;&amp;nbsp; &amp;nbsp; &amp;nbsp; params: accessToken&lt;/div&gt;&lt;div&gt;&amp;nbsp; &amp;nbsp; };&lt;/div&gt;&lt;div&gt;&lt;br&gt;&lt;/div&gt;&lt;div&gt;With empty request body&lt;/div&gt;" style="text;html=1;strokeColor=none;fillColor=none;align=center;verticalAlign=middle;whiteSpace=wrap;rounded=0;hachureGap=4;pointerEvents=0;" vertex="1" parent="1">
          <mxGeometry x="295" y="300" width="260" height="170" as="geometry" />
        </mxCell>
        <mxCell id="eP0lufbsr8X0sNE1XfRG-6" value="&lt;b&gt;Response:&lt;/b&gt;&lt;br&gt;&lt;div&gt;[&lt;/div&gt;&lt;div&gt;&amp;nbsp; &amp;nbsp; {&lt;/div&gt;&lt;div&gt;&amp;nbsp; &amp;nbsp; &amp;nbsp; &amp;nbsp; &quot;id&quot;: 6,&lt;/div&gt;&lt;div&gt;&amp;nbsp; &amp;nbsp; &amp;nbsp; &amp;nbsp; &quot;benefit&quot;: {&lt;/div&gt;&lt;div&gt;&amp;nbsp; &amp;nbsp; &amp;nbsp; &amp;nbsp; &amp;nbsp; &amp;nbsp; &quot;id&quot;: 6,&lt;/div&gt;&lt;div&gt;&amp;nbsp; &amp;nbsp; &amp;nbsp; &amp;nbsp; &amp;nbsp; &amp;nbsp; &quot;is_deleted&quot;: false,&lt;/div&gt;&lt;div&gt;&amp;nbsp; &amp;nbsp; &amp;nbsp; &amp;nbsp; &amp;nbsp; &amp;nbsp; &quot;created_at&quot;: &quot;2021-09-27T07:55:45.926106Z&quot;,&lt;/div&gt;&lt;div&gt;&amp;nbsp; &amp;nbsp; &amp;nbsp; &amp;nbsp; &amp;nbsp; &amp;nbsp; &quot;modified_at&quot;: &quot;2021-09-27T07:55:45.926127Z&quot;,&lt;/div&gt;&lt;div&gt;&amp;nbsp; &amp;nbsp; &amp;nbsp; &amp;nbsp; &amp;nbsp; &amp;nbsp; &quot;amount_rm&quot;: 0.0,&lt;/div&gt;&lt;div&gt;&amp;nbsp; &amp;nbsp; &amp;nbsp; &amp;nbsp; &amp;nbsp; &amp;nbsp; &quot;no_fees&quot;: true&lt;/div&gt;&lt;div&gt;&amp;nbsp; &amp;nbsp; &amp;nbsp; &amp;nbsp; },&lt;/div&gt;&lt;div&gt;&amp;nbsp; &amp;nbsp; &amp;nbsp; &amp;nbsp; &quot;is_deleted&quot;: false,&lt;/div&gt;&lt;div&gt;&amp;nbsp; &amp;nbsp; &amp;nbsp; &amp;nbsp; &quot;created_at&quot;: &quot;2021-09-27T07:55:45.935637Z&quot;,&lt;/div&gt;&lt;div&gt;&amp;nbsp; &amp;nbsp; &amp;nbsp; &amp;nbsp; &quot;modified_at&quot;: &quot;2021-09-27T07:55:45.935663Z&quot;,&lt;/div&gt;&lt;div&gt;&amp;nbsp; &amp;nbsp; &amp;nbsp; &amp;nbsp; &quot;code&quot;: &quot;WJgCAIQQg76riATk&quot;,&lt;/div&gt;&lt;div&gt;&amp;nbsp; &amp;nbsp; &amp;nbsp; &amp;nbsp; &quot;expiration_date&quot;: &quot;2021-09-28&quot;,&lt;/div&gt;&lt;div&gt;&amp;nbsp; &amp;nbsp; &amp;nbsp; &amp;nbsp; &quot;number_of_usage&quot;: 0,&lt;/div&gt;&lt;div&gt;&amp;nbsp; &amp;nbsp; &amp;nbsp; &amp;nbsp; &quot;max_number_of_usage&quot;: 1,&lt;/div&gt;&lt;div&gt;&amp;nbsp; &amp;nbsp; &amp;nbsp; &amp;nbsp; &quot;users&quot;: []&lt;/div&gt;&lt;div&gt;&amp;nbsp; &amp;nbsp; },&lt;/div&gt;&lt;div&gt;&amp;nbsp; &amp;nbsp; {&lt;/div&gt;&lt;div&gt;&amp;nbsp; &amp;nbsp; &amp;nbsp; &amp;nbsp; &quot;id&quot;: 7,&lt;/div&gt;&lt;div&gt;&amp;nbsp; &amp;nbsp; &amp;nbsp; &amp;nbsp; &quot;benefit&quot;: {&lt;/div&gt;&lt;div&gt;&amp;nbsp; &amp;nbsp; &amp;nbsp; &amp;nbsp; &amp;nbsp; &amp;nbsp; &quot;id&quot;: 7,&lt;/div&gt;&lt;div&gt;&amp;nbsp; &amp;nbsp; &amp;nbsp; &amp;nbsp; &amp;nbsp; &amp;nbsp; &quot;is_deleted&quot;: false,&lt;/div&gt;&lt;div&gt;&amp;nbsp; &amp;nbsp; &amp;nbsp; &amp;nbsp; &amp;nbsp; &amp;nbsp; &quot;created_at&quot;: &quot;2021-09-27T07:56:22.555397Z&quot;,&lt;/div&gt;&lt;div&gt;&amp;nbsp; &amp;nbsp; &amp;nbsp; &amp;nbsp; &amp;nbsp; &amp;nbsp; &quot;modified_at&quot;: &quot;2021-09-27T07:56:22.555425Z&quot;,&lt;/div&gt;&lt;div&gt;&amp;nbsp; &amp;nbsp; &amp;nbsp; &amp;nbsp; &amp;nbsp; &amp;nbsp; &quot;amount_rm&quot;: 23.0,&lt;/div&gt;&lt;div&gt;&amp;nbsp; &amp;nbsp; &amp;nbsp; &amp;nbsp; &amp;nbsp; &amp;nbsp; &quot;no_fees&quot;: false&lt;/div&gt;&lt;div&gt;&amp;nbsp; &amp;nbsp; &amp;nbsp; &amp;nbsp; },&lt;/div&gt;&lt;div&gt;&amp;nbsp; &amp;nbsp; &amp;nbsp; &amp;nbsp; &quot;is_deleted&quot;: false,&lt;/div&gt;&lt;div&gt;&amp;nbsp; &amp;nbsp; &amp;nbsp; &amp;nbsp; &quot;created_at&quot;: &quot;2021-09-27T07:56:22.565906Z&quot;,&lt;/div&gt;&lt;div&gt;&amp;nbsp; &amp;nbsp; &amp;nbsp; &amp;nbsp; &quot;modified_at&quot;: &quot;2021-09-27T07:56:22.565946Z&quot;,&lt;/div&gt;&lt;div&gt;&amp;nbsp; &amp;nbsp; &amp;nbsp; &amp;nbsp; &quot;code&quot;: &quot;WJgCAIQQg76riATk&quot;,&lt;/div&gt;&lt;div&gt;&amp;nbsp; &amp;nbsp; &amp;nbsp; &amp;nbsp; &quot;expiration_date&quot;: &quot;2021-09-30&quot;,&lt;/div&gt;&lt;div&gt;&amp;nbsp; &amp;nbsp; &amp;nbsp; &amp;nbsp; &quot;number_of_usage&quot;: 0,&lt;/div&gt;&lt;div&gt;&amp;nbsp; &amp;nbsp; &amp;nbsp; &amp;nbsp; &quot;max_number_of_usage&quot;: 12,&lt;/div&gt;&lt;div&gt;&amp;nbsp; &amp;nbsp; &amp;nbsp; &amp;nbsp; &quot;users&quot;: []&lt;/div&gt;&lt;div&gt;&amp;nbsp; &amp;nbsp; }&lt;/div&gt;&lt;div&gt;]&lt;/div&gt;" style="text;html=1;strokeColor=none;fillColor=none;align=left;verticalAlign=middle;whiteSpace=wrap;rounded=0;hachureGap=4;pointerEvents=0;" vertex="1" parent="1">
          <mxGeometry x="270" y="530" width="350" height="600" as="geometry" />
        </mxCell>
        <mxCell id="eP0lufbsr8X0sNE1XfRG-7" value="&lt;div style=&quot;text-align: left&quot;&gt;&lt;br&gt;&lt;/div&gt;" style="text;html=1;strokeColor=none;fillColor=none;align=center;verticalAlign=middle;whiteSpace=wrap;rounded=0;hachureGap=4;pointerEvents=0;" vertex="1" parent="1">
          <mxGeometry x="620" y="330" width="160" height="170" as="geometry" />
        </mxCell>
        <mxCell id="eP0lufbsr8X0sNE1XfRG-8" value="mutation &quot;setData&quot; will update &quot;state data&quot; with response" style="text;html=1;strokeColor=none;fillColor=none;align=center;verticalAlign=middle;whiteSpace=wrap;rounded=0;hachureGap=4;pointerEvents=0;" vertex="1" parent="1">
          <mxGeometry x="20" y="1230" width="390" height="20" as="geometry" />
        </mxCell>
        <mxCell id="eP0lufbsr8X0sNE1XfRG-9" value="On clicking CREATE button, variable &quot;dialog&quot; will set True and a window of heading &quot;Generate Promo Code&quot; will pop up" style="text;html=1;strokeColor=none;fillColor=none;align=center;verticalAlign=middle;whiteSpace=wrap;rounded=0;hachureGap=4;pointerEvents=0;" vertex="1" parent="1">
          <mxGeometry x="50" y="1450" width="390" height="60" as="geometry" />
        </mxCell>
        <mxCell id="eP0lufbsr8X0sNE1XfRG-10" value="4 fields will pop up&lt;br&gt;&lt;ul&gt;&lt;li style=&quot;text-align: left&quot;&gt;select field for Type&lt;/li&gt;&lt;li style=&quot;text-align: left&quot;&gt;Expiry date of coupon&lt;/li&gt;&lt;li style=&quot;text-align: left&quot;&gt;Amount&lt;/li&gt;&lt;li style=&quot;text-align: left&quot;&gt;Maximum number of usage&amp;nbsp;&lt;/li&gt;&lt;/ul&gt;" style="text;html=1;strokeColor=none;fillColor=none;align=center;verticalAlign=middle;whiteSpace=wrap;rounded=0;hachureGap=4;pointerEvents=0;" vertex="1" parent="1">
          <mxGeometry x="50" y="1530" width="390" height="100" as="geometry" />
        </mxCell>
        <mxCell id="eP0lufbsr8X0sNE1XfRG-11" value="promoSet:[&lt;br&gt;&amp;nbsp; &amp;nbsp; &amp;nbsp; &amp;nbsp; {text:&quot;Amount&quot;,value:&quot;amount&quot;},&lt;br&gt;&amp;nbsp; &amp;nbsp; &amp;nbsp; &amp;nbsp; {text:&quot;Fee Benefits&quot;,value:&quot;fee_benefits&quot;}" style="text;html=1;strokeColor=none;fillColor=none;align=left;verticalAlign=middle;whiteSpace=wrap;rounded=0;hachureGap=4;pointerEvents=0;" vertex="1" parent="1">
          <mxGeometry x="190" y="1730" width="260" height="110" as="geometry" />
        </mxCell>
        <mxCell id="eP0lufbsr8X0sNE1XfRG-12" value="Type field value from promoSet will be selected depending on the selction&amp;nbsp;" style="text;html=1;strokeColor=none;fillColor=none;align=left;verticalAlign=middle;whiteSpace=wrap;rounded=0;hachureGap=4;pointerEvents=0;" vertex="1" parent="1">
          <mxGeometry x="170" y="1670" width="330" height="40" as="geometry" />
        </mxCell>
        <mxCell id="eP0lufbsr8X0sNE1XfRG-13" value="promo:{type:&#39;amount&#39;,no_fees:false}" style="text;html=1;strokeColor=none;fillColor=none;align=center;verticalAlign=middle;whiteSpace=wrap;rounded=0;hachureGap=4;pointerEvents=0;" vertex="1" parent="1">
          <mxGeometry x="530" y="1740" width="180" height="100" as="geometry" />
        </mxCell>
        <mxCell id="eP0lufbsr8X0sNE1XfRG-14" value="&quot;promoSet&quot; will be passed as prop and &quot;promo&quot; will have dynamic binding.&lt;br&gt;&lt;br&gt;&lt;div&gt;&lt;span&gt;On selection of Amount or Fee&amp;nbsp;&lt;/span&gt;&lt;span&gt;Benefits, changeType function will update the booleans.&lt;/span&gt;&lt;/div&gt;&lt;div&gt;&lt;span&gt;&lt;br&gt;&lt;/span&gt;&lt;/div&gt;&lt;div&gt;&lt;span&gt;if&amp;nbsp;&lt;/span&gt;&lt;/div&gt;Fee Benefits selected&lt;div&gt;&lt;span&gt;amountFlag = true&lt;/span&gt;&lt;/div&gt;&lt;div&gt;promo.no_fees = true&lt;/div&gt;&lt;div&gt;&lt;br&gt;&lt;/div&gt;&lt;div&gt;otherwise false&lt;/div&gt;" style="text;html=1;strokeColor=none;fillColor=none;align=left;verticalAlign=middle;whiteSpace=wrap;rounded=0;hachureGap=4;pointerEvents=0;" vertex="1" parent="1">
          <mxGeometry x="260" y="1860" width="280" height="170" as="geometry" />
        </mxCell>
        <mxCell id="eP0lufbsr8X0sNE1XfRG-17" value="&lt;h1&gt;&lt;span style=&quot;font-size: 12px ; font-weight: normal&quot;&gt;All four fileds have two-way binding with&lt;/span&gt;&lt;br&gt;&lt;/h1&gt;&lt;p&gt;&lt;/p&gt;&lt;ul&gt;&lt;li&gt;promo.type&lt;/li&gt;&lt;li&gt;promo.expiry_date&lt;/li&gt;&lt;li&gt;promo.amount&lt;br&gt;&lt;/li&gt;&lt;li&gt;promo.max_number_of_usage&lt;br&gt;&lt;/li&gt;&lt;/ul&gt;&lt;p&gt;&lt;/p&gt;" style="text;html=1;strokeColor=none;fillColor=none;spacing=5;spacingTop=-20;whiteSpace=wrap;overflow=hidden;rounded=0;hachureGap=4;pointerEvents=0;" vertex="1" parent="1">
          <mxGeometry x="200" y="2110" width="250" height="160" as="geometry" />
        </mxCell>
        <mxCell id="eP0lufbsr8X0sNE1XfRG-18" value="&lt;h1&gt;on Click Generate button&lt;/h1&gt;&lt;p&gt;createPromo function will&lt;br&gt;&lt;/p&gt;&lt;p&gt;&lt;/p&gt;&lt;ul&gt;&lt;li&gt;dispatch action &#39;create&#39;&amp;nbsp; with payload &quot;promo&quot; in &quot;coupon&quot; store&lt;br&gt;&lt;/li&gt;&lt;/ul&gt;&lt;p&gt;&lt;/p&gt;&lt;li&gt;Rest values to previous one:&lt;/li&gt;&lt;ul&gt;&lt;li&gt;promo={type:&#39;amount&#39;,no_fees:false}&lt;/li&gt;&lt;li&gt;dialog =false&lt;br&gt;&lt;/li&gt;&lt;/ul&gt;" style="text;html=1;strokeColor=none;fillColor=none;spacing=5;spacingTop=-20;whiteSpace=wrap;overflow=hidden;rounded=0;hachureGap=4;pointerEvents=0;" vertex="1" parent="1">
          <mxGeometry x="225" y="2250" width="325" height="200" as="geometry" />
        </mxCell>
        <mxCell id="eP0lufbsr8X0sNE1XfRG-19" value="&lt;h1&gt;Response:&lt;/h1&gt;&lt;p&gt;{&lt;/p&gt;&lt;p&gt;&amp;nbsp; &amp;nbsp; &quot;id&quot;: 10,&lt;/p&gt;&lt;p&gt;&amp;nbsp; &amp;nbsp; &quot;benefit&quot;: {&lt;/p&gt;&lt;p&gt;&amp;nbsp; &amp;nbsp; &amp;nbsp; &amp;nbsp; &quot;id&quot;: 10,&lt;/p&gt;&lt;p&gt;&amp;nbsp; &amp;nbsp; &amp;nbsp; &amp;nbsp; &quot;is_deleted&quot;: false,&lt;/p&gt;&lt;p&gt;&amp;nbsp; &amp;nbsp; &amp;nbsp; &amp;nbsp; &quot;created_at&quot;: &quot;2021-09-28T09:13:35.533629Z&quot;,&lt;/p&gt;&lt;p&gt;&amp;nbsp; &amp;nbsp; &amp;nbsp; &amp;nbsp; &quot;modified_at&quot;: &quot;2021-09-28T09:13:35.533653Z&quot;,&lt;/p&gt;&lt;p&gt;&amp;nbsp; &amp;nbsp; &amp;nbsp; &amp;nbsp; &quot;amount_rm&quot;: 50.0,&lt;/p&gt;&lt;p&gt;&amp;nbsp; &amp;nbsp; &amp;nbsp; &amp;nbsp; &quot;no_fees&quot;: false&lt;/p&gt;&lt;p&gt;&amp;nbsp; &amp;nbsp; },&lt;/p&gt;&lt;p&gt;&amp;nbsp; &amp;nbsp; &quot;is_deleted&quot;: false,&lt;/p&gt;&lt;p&gt;&amp;nbsp; &amp;nbsp; &quot;created_at&quot;: &quot;2021-09-28T09:13:35.540160Z&quot;,&lt;/p&gt;&lt;p&gt;&amp;nbsp; &amp;nbsp; &quot;modified_at&quot;: &quot;2021-09-28T09:13:35.540176Z&quot;,&lt;/p&gt;&lt;p&gt;&amp;nbsp; &amp;nbsp; &quot;code&quot;: &quot;DsqJqLTGiCjsDlQO&quot;,&lt;/p&gt;&lt;p&gt;&amp;nbsp; &amp;nbsp; &quot;expiration_date&quot;: &quot;2021-09-09&quot;,&lt;/p&gt;&lt;p&gt;&amp;nbsp; &amp;nbsp; &quot;number_of_usage&quot;: 0,&lt;/p&gt;&lt;p&gt;&amp;nbsp; &amp;nbsp; &quot;max_number_of_usage&quot;: 3,&lt;/p&gt;&lt;p&gt;&amp;nbsp; &amp;nbsp; &quot;users&quot;: []&lt;/p&gt;&lt;p&gt;}&lt;/p&gt;" style="text;html=1;strokeColor=none;fillColor=none;spacing=5;spacingTop=-20;whiteSpace=wrap;overflow=hidden;rounded=0;hachureGap=4;pointerEvents=0;" vertex="1" parent="1">
          <mxGeometry x="217.5" y="2475" width="340" height="550" as="geometry" />
        </mxCell>
      </root>
    </mxGraphModel>
  </diagram>
</mxfile>
